<?xml version="1.0" standalone="no"?>
<!DOCTYPE svg PUBLIC "-//W3C//DTD SVG 20010904//EN"
 "http://www.w3.org/TR/2001/REC-SVG-20010904/DTD/svg10.dtd">
<svg version="1.0" xmlns="http://www.w3.org/2000/svg"
 width="512.000000pt" height="512.000000pt" viewBox="0 0 512.000000 512.000000"
 preserveAspectRatio="xMidYMid meet">

<g transform="translate(0.000000,512.000000) scale(0.100000,-0.100000)"
fill="#fff" stroke="none">
<path d="M4270 3980 c-346 -45 -533 -432 -355 -737 57 -96 172 -184 284 -217
70 -21 198 -20 268 0 208 61 352 252 353 467 0 297 -256 524 -550 487z"/>
<path d="M3125 3772 c-48 -22 -111 -90 -132 -140 -33 -80 -26 -290 17 -505 27
-131 85 -304 150 -448 28 -63 54 -119 56 -126 3 -6 -98 -94 -232 -202 l-238
-190 -86 82 c-139 133 -468 387 -617 477 -53 32 -64 35 -138 35 -71 0 -88 -4
-145 -32 -41 -21 -263 -189 -590 -446 -428 -336 -531 -422 -560 -465 l-34 -52
-168 0 c-198 0 -247 -13 -315 -82 -65 -66 -88 -126 -88 -228 0 -76 3 -92 33
-152 36 -73 92 -123 167 -149 59 -21 2533 -21 2615 0 96 24 170 72 380 247
113 93 309 253 435 354 127 101 318 256 425 345 l195 162 325 6 c354 6 383 10
451 66 46 38 80 109 86 179 10 123 -81 441 -193 672 l-66 134 -23 -56 c-51
-124 -145 -226 -264 -285 -42 -21 -78 -39 -80 -40 -2 -1 11 -37 28 -80 17 -43
31 -81 31 -85 0 -5 -57 -8 -127 -8 l-128 0 -58 60 c-111 113 -279 170 -420
141 -34 -7 -91 -28 -127 -47 -35 -19 -67 -31 -71 -26 -28 30 -131 363 -117
377 5 6 199 -10 272 -21 35 -6 38 -4 31 12 -54 134 -48 321 16 446 l19 37 -33
5 c-50 9 -378 35 -517 41 -110 5 -130 4 -165 -13z m-1097 -1812 c64 -49 144
-114 177 -144 l60 -55 -362 -1 c-200 0 -363 3 -363 8 1 9 352 282 363 282 5 0
61 -40 125 -90z"/>
</g>
</svg>
